<?xml version="1.0" encoding="utf-8"?>
<!-- Generator: Adobe Illustrator 22.1.0, SVG Export Plug-In . SVG Version: 6.00 Build 0)  -->
<svg version="1.1" xmlns="http://www.w3.org/2000/svg" xmlns:xlink="http://www.w3.org/1999/xlink" x="0px" y="0px"
	 viewBox="0 0 60 65" style="enable-background:new 0 0 60 65;" xml:space="preserve">
<style type="text/css">
	.st0{display:none;}
	.st1{display:inline;}
	.st2{fill:#42210B;}
	.st3{fill:#300A0A;}
	.st4{fill:#FFD166;}
</style>
<g id="Layer_1" class="st0">
	<g class="st1">
		<g>
			<path class="st2" d="M38,43.4c2.3,0.6,7.8-2.1,8.3-4.6c0.6-3.5-3.9-4.7-6.4-4.8c-2.5-0.1-8.9-0.1-9.8,3.1c-1,3.4,6.9,5.1,9,5.7
				c0.5,0.1,0.7-0.6,0.2-0.7c-2-0.6-5-1.2-6.6-2.6c-4.3-3.8,3.5-4.7,5.4-4.7c1.8-0.1,4.4-0.2,5.8,0.9c4.3,3.4-3.2,7.7-5.6,7.1
				C37.7,42.6,37.5,43.3,38,43.4L38,43.4z"/>
		</g>
	</g>
	<g class="st1">
		<g>
			<path class="st2" d="M38.6,43.3c-0.3,1.6-1.5,5.2-0.7,6.8c0.6,1.2,2.4,1.4,3.6,1.4c4.9,0,8.8-3.7,12.1-6.9
				c0.3-0.3-0.2-0.9-0.5-0.5c-2.3,2.2-4.6,4.5-7.6,5.7c-2,0.9-3.7,1.3-5.6,0.1c-1.6-1-1.3-1.3-1-3c0.1-1.1,0.4-2.2,0.6-3.4
				C39.4,43,38.7,42.8,38.6,43.3L38.6,43.3z"/>
		</g>
	</g>
	<g class="st1">
		<g>
			<path class="st2" d="M37.5,48.2c-0.7,3.1-7.2,2.1-9.1,1.7c-2.4-0.5-4.6-1.4-6.6-2.8c-0.4-0.3-0.8,0.4-0.4,0.6
				c3.2,2.1,6.7,3.2,10.5,3.3c2.4,0.1,5.6,0.2,6.3-2.6C38.3,48,37.6,47.8,37.5,48.2L37.5,48.2z"/>
		</g>
	</g>
</g>
<g id="Layer_2">
	<g id="nYxiFL.tif" class="st0">
		
			<image style="display:inline;overflow:visible;" width="680" height="1018" id="Layer_0_1_" xlink:href="6E761A8C92FAE40.png"  transform="matrix(0.5825 0 0 0.5825 -156 -168)">
		</image>
	</g>
</g>
<g id="Layer_4" class="st0">
	<g class="st1">
		<g>
			<path class="st3" d="M13.6,69.1c8.7,2.4,23-1.5,21.5-13.1c-0.6-4.3-4-4.4-7.5-5c-6.4-1-13.1-12.7-14.3-18.9
				C11.1,20.9,22.8,19.4,31,19.4c6.2,0,19.8,0.6,22.3,7.8c2.3,6.7-3.8,11.3-7,16.4c-2.2,3.6-4.1,5.9-8.3,7.2c-2.7,0.8-5,1.2-7.3,2.8
				c-1.6,1.1-0.1,3.7,1.5,2.6c3.1-2.1,6.9-2,10.2-3.8c2.1-1.2,3.7-3,5.1-5c2-2.8,3.5-5.7,5.9-8.3c1.9-2.1,2.7-2.9,3.1-5.7
				c0.9-6.3-1-11-6.9-13.6c-6.7-3-14.8-3.7-22.1-3.2c-5.3,0.4-12,1-15.3,5.6c-3.7,5.2-2.1,11.9,0.7,17c1.9,3.6,4.2,7.1,6.5,10.5
				c1.4,2.1,2.7,3.4,5.2,4c1.3,0.3,2.9-0.1,4.2,0.3c4.3,1.3,3.5,3.1,2.5,5.9c-2.2,6.6-11.1,7.9-17,6.2
				C12.5,65.6,11.7,68.5,13.6,69.1L13.6,69.1z"/>
		</g>
	</g>
</g>
<g id="Layer_5">
</g>
<g id="Layer_6">
	<g>
		<path class="st4" d="M39.4,61.9c4-1,5.7-4.6,7.9-8.8c1.4-2.9,3.3-6.9,2.2-11.6c-0.4-1.8-1.2-3.6-1.8-5.4c-0.5-1.8-0.8-3.7-1.5-5.4
			c-1.9-4.2-6.3-7.1-10.5-9.6c-1.9-1.1-3.9-2.3-6-2.5c-3.6-0.3-6.3,2.3-8.4,4.7c-1.6,1.8-3.2,3.6-4.8,5.4c-3.7,4.2-7.4,8.4-9,13.8
			C5.9,48,6.9,54.7,11.6,59.1c0.4,0.4,3.3,2.7,7.1,3c2.5,0.2,3.5-0.8,5.8-1.4C30.9,58.8,34.2,63.3,39.4,61.9z"/>
	</g>
	<g>
		<path class="st4" d="M9,14.1c-3.4-0.7-5.6,2.5-6.3,5.7c-0.3,1.2-0.7,3.1,0,5.3C3.4,27.4,5.2,29.3,7,30c1.7,0.7,3.4,0.3,4.8-0.4
			c1.2-0.5,4.5-2.5,4-6.9c-0.4-3.3-2.7-6-2.9-6.3C11.1,14.6,9.5,14.2,9,14.1z"/>
	</g>
	<g class="st0">
		<g class="st1">
			<path class="st3" d="M33,1.8c-2.4-2.2-7.7-1.6-10.1,0.4c-3.2,2.6-2.9,7.8,0.4,10.2c3.4,2.5,8.4,1.2,11.1-1.8
				C36.7,8.2,34.8,4.1,33,1.8c-0.3-0.4-0.8,0.2-0.5,0.5c1,1.2,2.7,4.4,2.4,6.1c-0.8,3.9-6.7,5.4-9.8,4.1c-4-1.8-4.9-7.9-0.9-10.2
				c2-1.1,6.6-1.6,8.4,0.1C32.8,2.7,33.3,2.2,33,1.8z"/>
		</g>
	</g>
	<g class="st0">
		<g class="st1">
			<path class="st3" d="M50.7,4c-3.5-1.9-8.2-1.2-10,2.6C39,10.3,40.8,15,44.8,16c2.6,0.7,6-0.2,8-2.1C56,10.8,53.9,6.1,50.7,4
				c-0.4-0.3-0.8,0.4-0.4,0.6c3.4,2.3,4.8,7.2,0.7,9.6c-1.3,0.8-2.9,1.2-4.4,1.2c-4.1,0-6.8-4-5.5-7.9c1.3-3.9,5.9-4.7,9.2-2.9
				C50.7,4.9,51.1,4.2,50.7,4z"/>
		</g>
	</g>
	<g class="st0">
		<g class="st1">
			<path class="st3" d="M61.1,9c-4.2-1.3-9.7,0.6-11.6,4.8c-1.9,4.1,2.2,7.3,5.9,7.7c3.3,0.4,8.2-0.3,9.9-3.7
				C66.9,14.3,64.3,10.4,61.1,9c-0.4-0.2-0.6,0.5-0.2,0.7c1.3,0.6,2.5,1.6,3.3,2.8c1.1,1.8,1,4.8-0.6,6.3c-1.6,1.5-4.2,2-6.3,2
				c-4.2,0.1-10-3.1-6.4-7.9c2.3-3,6.4-4.4,10-3.2C61.3,9.9,61.5,9.2,61.1,9z"/>
		</g>
	</g>
	<g>
		<path class="st4" d="M22.4,1.9c-3.3-1-5.8,1.9-6.9,5c-0.4,1.2-1,3-0.5,5.3c0.5,2.5,2.1,4.5,3.8,5.3c1.7,0.8,3.3,0.6,4.8,0.1
			c1.2-0.4,4.7-2,4.6-6.4c0-3.3-2-6.2-2.3-6.5C24.5,2.6,23,2.1,22.4,1.9z"/>
	</g>
	<g>
		<path class="st4" d="M38.3,2.2c-3.3-1-5.8,1.9-6.9,5c-0.4,1.2-1,3-0.5,5.3c0.5,2.5,2.1,4.5,3.8,5.3s3.3,0.6,4.8,0.1
			c1.2-0.4,4.7-2,4.6-6.4c0-3.3-2-6.2-2.3-6.5C40.4,2.9,38.8,2.3,38.3,2.2z"/>
	</g>
	<g>
		<path class="st4" d="M52.1,12.4c-3.3-1-5.8,1.9-6.9,5c-0.4,1.2-1,3-0.5,5.3c0.5,2.5,2.1,4.5,3.8,5.3c1.7,0.8,3.3,0.6,4.8,0.1
			c1.2-0.4,4.7-2,4.6-6.4c0-3.3-2-6.2-2.3-6.5C54.2,13.1,52.6,12.5,52.1,12.4z"/>
	</g>
</g>
<g id="Layer_3" class="st0">
	<g class="st1">
		<g>
			<path class="st3" d="M34.7,57.3c-0.2-3.1,7.8-4.1,10.1-5.5c2.1-1.3,3.9-3.2,5.5-5.1c3.3-3.9,7.4-8.6,7.7-13.9
				c0.8-12.5-13-17.6-23.1-18.4C24.4,13.7,9.7,16.7,8.2,29.4c-0.6,5.1,1.5,9.1,5.3,12.2C20,46.7,28.3,50,31.2,58.2
				c0.6,1.8,3.5,1,2.9-0.8c-1.3-3.8-2.1-6.3-5.4-8.6c-4.7-3.5-10.2-6.5-14.5-10.5c-6-5.6-2.5-14.3,3.7-18c5.3-3.2,11.8-3.3,17.8-2.7
				c6.3,0.6,13.4,2.3,17.2,7.9c4.2,6.3,1.1,11.9-3,17.1c-1.4,1.9-2.9,3.7-4.7,5.2c-2.7,2.4-5.3,2.7-8.7,3.6
				c-2.9,0.8-5.1,2.7-4.8,5.9C31.8,59.2,34.8,59.2,34.7,57.3L34.7,57.3z"/>
		</g>
	</g>
	<g class="st1">
		<g>
			<path class="st3" d="M32,56.7c-2.5,5.7,2.3,9.3,7.4,10.5C48.8,69.4,56,67,64.9,64c6.6-2.3,10.6-5.1,12.6-12.1
				c0.9-3,1.9-7,1.4-10.1c-0.5-2.9-2.7-5.1-4.1-7.6c-0.9-1.7-3.5-0.2-2.6,1.5c0.8,1.5,2.1,2.9,2.9,4.4c1.3,2.7,0.8,5.5,0.2,8.3
				c-1.1,5.5-3.1,9.7-8.6,11.8c-4.5,1.7-9.3,3.6-14,4.6c-2.7,0.6-21.1,0.8-17.9-6.6C35.4,56.5,32.8,55,32,56.7L32,56.7z"/>
		</g>
	</g>
	<g class="st1">
		<g>
			<path class="st3" d="M31.2,59.8c-7.4,3.8-13.6,7-22.2,4.8c-7.5-2-13.9-7.1-19.9-11.8c-1.5-1.2-3.6,0.9-2.1,2.1
				C-6.2,60.3,1,66,9.8,67.9c8.9,1.9,15.2-1.6,22.9-5.5C34.4,61.5,32.9,58.9,31.2,59.8L31.2,59.8z"/>
		</g>
	</g>
	<g class="st1">
		<g>
			<path class="st3" d="M16.8,68c5.2,1.8,10.6,2.7,16.1,2.8c4.5,0.1,9.5,0.2,13.5-2.1c1.7-1,0.2-3.5-1.5-2.6
				c-7.2,4.1-20.1,1.6-27.3-1C15.8,64.4,15,67.3,16.8,68L16.8,68z"/>
		</g>
	</g>
	<g>
		<g class="st1">
			<path class="st3" d="M8.9,32.4c-2.1,5.4,4.7,7,8.6,7.3c2.4,0.2,12.5,2.3,12.3-2.4c-0.1-2.1-3.1-3.9-4.4-5.1
				c-1.4-1.5-3.2-2.9-5.5-2.6c-4.6,0.7-3.4,5.6-0.7,7.6c-0.2-0.4-0.5-0.9-0.7-1.3c0-0.1,0.1-0.2,0.1-0.3c-1.5,1.2,0.6,3.3,2.1,2.1
				c1.1-0.9,0.5-1.5,0.5-2.6c-0.1-0.2-0.2-0.3-0.4-0.4c-0.7-0.5-0.2-0.9,1.6-1.3c0.4,0,2.6,2.6,2.8,3c0.6,1,1.5,0.4-0.6,0.6
				c-1.2,0.1-2.5-0.1-3.7-0.2c-2-0.1-10.8,0.2-9.3-3.7C12.5,31.4,9.6,30.6,8.9,32.4L8.9,32.4z"/>
		</g>
	</g>
	<g>
		<g class="st1">
			<path class="st3" d="M55.3,34.3c-1-0.3-1.6-0.3-2.5,0.1c-2.1,0.9-3.7,2.1-6,2.6c-1.3,0.3-5.1,1.3-6.4,0.7c-1-0.5-0.1-0.7,0.6-1.4
				c1.7-1.7,1.8-0.7,4.1-1.2c-1.9,0.4-1.1,3.3,0.8,2.9c3-0.7,3.6-4.4,1-6c-3.2-2-7.5,1.3-9.7,3.4c-2.8,2.7-0.5,5.2,2.7,5.4
				c2.3,0.1,4.9-0.2,7.2-0.7c1.5-0.3,2.9-0.7,4.3-1.3c0.7-0.3,2.5-1.8,3.2-1.5C56.4,37.9,57.1,35,55.3,34.3L55.3,34.3z"/>
		</g>
	</g>
</g>
</svg>
